<svg xmlns="http://www.w3.org/2000/svg"
shape-rendering="geometricPrecision"
width="4000" height="4000" viewBox="0 0 1024 1024">
  <metadata>null</metadata>

<path d="
M 48.967 816.093
C 50.313 807.883 52.735 799.814 57.499 792.882
C 67.548 778.261 85.679 770.553 103.23 771.914
C 113.419 772.704 122.801 775.417 131.156 781.486
C 133.148 782.932 135.031 784.502 136.684 786.332
C 137.159 786.858 138.209 787.647 138.252 788.395
C 137.701 789.549 135.773 790.64 134.892 791.662
C 131.983 795.037 128.957 799.001 125.624 801.934
C 124.046 800.737 122.747 799.164 121.169 797.937
C 116.815 794.556 111.482 791.87 106.001 790.991
C 100.7 790.14 95.339 790.295 90.159 791.778
C 67.816 798.175 62.72 828.246 77.266 844.505
C 83.317 851.269 92.387 854.381 101.316 853.914
C 107.489 853.591 113.89 851.769 119.033 848.252
C 121.375 846.65 123.461 843.677 125.979 842.534
C 129.019 845.645 132.045 848.766 135.111 851.853
C 136.144 852.893 138.184 854.207 138.749 855.514
C 138.372 856.344 137.339 856.943 136.672 857.524
C 135.019 858.963 133.38 860.413 131.647 861.754
C 123.138 868.338 113.175 871.969 102.416 872.432
C 84.799 873.189 66.594 865.406 56.702 850.421
C 53.103 844.968 50.854 838.663 49.633 832.272
C 48.621 826.972 48.355 821.466 48.967 816.093 Z"
opacity="1" fill="rgb(21,31,67)" fill-rule="evenodd" />
<path d="
M 150.505 770.111
C 150.501 769.914 150.497 769.717 150.493 769.52
C 152.171 768.722 154.658 769.207 156.508 769.21
C 159.841 769.215 163.174 769.212 166.507 769.201
C 168.066 769.195 170.038 768.821 171.539 769.251
C 171.169 772.09 171.445 775.146 171.433 778.013
C 171.421 780.954 171.125 784.107 171.516 787.02
C 170.532 787.735 167.262 786.966 166.006 786.933
C 160.872 786.798 155.719 787.042 150.59 786.858
C 150.069 781.357 150.613 775.651 150.505 770.111 Z"
opacity="1" fill="rgb(21,30,67)" fill-rule="evenodd" />
<path d="
M 151.321 797.824
C 156.208 797.907 161.116 797.784 166.008 797.801
C 167.065 797.804 170.158 797.295 170.885 798
C 170.451 815.811 170.961 833.692 170.963 851.511
C 170.964 857.579 171.385 863.794 171.035 869.834
C 170.071 870.539 167.684 870.111 166.506 870.091
C 162.9 870.031 159.289 870.072 155.682 870.084
C 154.625 870.087 152.329 870.551 151.421 870.062
C 151.668 845.992 150.888 821.889 151.321 797.824 Z"
opacity="1" fill="rgb(22,32,68)" fill-rule="evenodd" />
<path d="
M 190.334 797.828
C 196.65 798.054 203.401 797.014 209.656 797.897
C 209.951 799.659 209.613 801.698 209.593 803.487
C 209.567 805.738 209.838 808.038 209.66 810.28
C 210.16 810.318 210.541 809.058 210.729 808.717
C 211.795 806.79 213.203 805.116 214.735 803.541
C 218.349 799.825 222.733 797.204 227.886 796.308
C 229.197 796.08 230.944 795.677 232.266 795.95
C 232.443 802.561 232.091 809.175 232.647 815.767
C 229.884 815.674 226.997 815.829 224.34 816.625
C 222.502 817.176 220.698 818.089 219.066 819.09
C 214.67 821.788 211.277 826.101 210.026 831.171
C 209.331 833.99 209.608 837.119 209.61 840
C 209.614 845 209.631 850.001 209.629 855.001
C 209.627 858.94 210.059 863.246 209.507 867.139
C 209.414 867.799 209.851 869.736 209.413 870.184
C 203.159 870.161 196.487 869.424 190.28 870.202
C 189.771 867.829 190.176 864.935 190.166 862.503
C 190.145 857.17 190.189 851.836 190.199 846.502
C 190.231 830.279 190.15 814.049 190.334 797.828 Z"
opacity="1" fill="rgb(21,31,67)" fill-rule="evenodd" />
<path d="
M 191.48 437.618
C 192.118 432.551 191.916 427.347 192.463 422.255
C 193.927 408.637 196.144 394.753 200.053 381.603
C 206.709 359.21 216.004 338.337 228.254 318.433
C 246.784 288.325 273.644 262.965 303.107 243.775
C 318.518 233.738 336.012 225.319 353.502 219.6
C 357.624 218.252 361.732 216.823 365.911 215.66
C 366.699 215.441 369.239 214.387 369.889 214.833
C 371.908 238.439 387.696 258.486 410.13 266.041
C 417.969 268.681 425.564 268.793 433.696 268.813
C 433.929 269.566 432.708 270.019 432.253 270.475
C 430.536 272.199 428.86 273.983 427.212 275.774
C 420.295 283.29 413.738 291.091 407.703 299.338
C 399.208 310.946 391.902 323.148 385.653 336.105
C 383.373 340.834 381.244 345.632 379.212 350.471
C 378.314 352.61 377.744 355.194 376.567 357.181
C 375.431 359.098 373.26 360.581 371.69 362.132
C 368.466 365.316 365.436 368.859 362.657 372.437
C 356.395 380.5 351.485 389.659 347.423 398.993
C 333.205 431.663 335.352 470.767 352.485 501.867
C 356.254 508.708 360.895 514.91 365.964 520.837
C 368.379 523.66 372.3 526.34 374.016 529.618
C 376.128 533.654 376.91 538.632 378.636 542.877
C 382.334 551.968 386.522 560.787 391.045 569.493
C 400.807 588.289 414.232 605.533 428.77 620.851
C 430.761 622.949 433.077 624.702 435.111 626.753
C 435.718 628.182 435.655 629.915 436.061 631.423
C 436.692 633.768 437.97 635.984 439.687 637.709
C 441.045 639.072 442.711 639.992 444.443 640.791
C 445.156 641.12 446.336 641.382 446.837 641.992
C 446.065 649.088 450.006 655.575 456.425 658.602
C 458.74 659.693 461.324 659.476 463.618 660.378
C 464.661 662.088 465.01 664.206 466.111 665.933
C 468.087 669.032 471.607 671.182 475.125 672.057
C 476.755 672.462 478.428 672.501 480.1 672.464
C 480.934 672.445 482.109 672.148 482.864 672.469
C 483.303 674.029 484.565 675.236 485.706 676.322
C 486.1 676.697 487.267 677.507 487.353 678.011
C 487.215 678.239 486.137 678.112 485.887 678.134
C 484.109 678.292 482.308 678.764 480.557 679.1
C 473.669 680.422 466.77 681.586 459.799 682.386
C 429.068 685.911 396.418 683.119 366.853 673.984
C 340.901 665.967 315.356 654.622 293.349 638.462
C 268.331 620.091 246.384 597.844 229.215 571.933
C 213.825 548.706 203.044 521.8 197.088 494.653
C 193.037 476.186 190.353 456.572 191.48 437.618 Z"
opacity="1" fill="rgb(20,33,67)" fill-rule="evenodd" />
<path d="
M 238.973 832.111
C 239.561 826.955 240.252 821.959 242.462 817.184
C 249.536 801.897 265.91 794.643 282.168 796.268
C 289.596 797.01 296.478 799.599 302.102 804.585
C 303.474 805.801 306.158 807.744 306.78 809.502
C 306.289 810.711 304.411 811.563 303.501 812.487
C 301.336 814.685 299.115 816.821 296.879 818.951
C 296.205 819.593 295.505 820.935 294.681 821.328
C 293.666 820.483 292.977 819.274 291.948 818.414
C 289.606 816.456 286.859 815.004 283.917 814.183
C 281.114 813.401 277.984 813.087 275.095 813.51
C 270.981 814.112 266.964 815.806 264.039 818.853
C 254.963 828.305 256.762 846.573 268.433 853.012
C 270.731 854.28 273.384 854.945 275.983 855.198
C 279.085 855.501 282.059 854.866 284.97 853.838
C 288.739 852.506 291.774 850.008 294.525 847.197
C 295.703 847.824 296.744 849.263 297.772 850.168
C 299.896 852.037 302.105 853.793 304.315 855.56
C 304.916 856.041 307.286 857.265 307.331 857.918
C 305.56 860.678 302.501 863.197 299.881 865.117
C 285.212 875.865 263.602 874.212 250.219 862.08
C 242.159 854.774 238.372 842.781 238.973 832.111 Z"
opacity="1" fill="rgb(20,31,68)" fill-rule="evenodd" />
<path d="
M 319.826 769.304
C 324.719 769.392 329.613 769.394 334.508 769.408
C 335.783 769.411 337.057 769.4 338.331 769.404
C 338.591 769.405 339.161 769.26 339.293 769.537
C 339.68 792.504 339.299 815.529 339.262 838.502
C 339.251 845.502 339.278 852.503 339.26 859.503
C 339.251 862.857 338.638 866.892 339.292 870.174
C 332.814 869.734 326.069 871.008 319.635 870.134
C 319.888 846.099 319.59 822.04 319.584 798.002
C 319.583 791.335 319.568 784.667 319.577 778
C 319.581 775.553 318.812 771.497 319.826 769.304 Z"
opacity="1" fill="rgb(20,31,66)" fill-rule="evenodd" />
<path d="
M 354.017 834.118
C 354.32 831.377 354.268 828.669 354.773 825.935
C 355.927 819.685 358.705 813.837 362.734 808.924
C 374.802 794.206 400.533 791.133 414.74 804.451
C 421.602 810.883 425.402 820.114 426.269 829.374
C 426.641 833.347 426.059 837.334 426.358 841.253
C 414.412 841.353 402.452 841.183 390.504 841.145
C 386.67 841.133 382.835 841.108 379.001 841.154
C 377.201 841.176 375.365 840.954 373.597 841.357
C 374.525 844.847 375.821 848.164 378.343 850.84
C 383.853 856.688 393.798 857.389 401.07 855.062
C 405.355 853.69 408.042 851.178 411.603 848.696
C 415.317 852.166 418.787 855.905 422.748 859.11
C 422.228 860.711 419.199 862.403 417.92 863.437
C 412.17 868.081 405.266 870.924 397.953 871.826
C 380.458 873.983 361.896 865.107 356.047 847.778
C 354.577 843.423 353.941 838.709 354.017 834.118 Z
M 373.489 828.112
C 373.446 828.318 373.402 828.524 373.359 828.731
C 374.072 829.015 375.337 828.706 376.113 828.678
C 378.409 828.594 380.716 828.656 383.012 828.666
C 391.303 828.705 399.596 828.634 407.885 828.718
C 407.95 827.027 407.299 824.929 406.742 823.347
C 405.845 820.801 404.785 818.395 402.833 816.46
C 398.358 812.025 390.402 810.752 384.629 813.22
C 378.086 816.018 375.286 821.66 373.489 828.112 Z"
opacity="1" fill="rgb(19,31,67)" fill-rule="evenodd" />
<path d="
M 506.341 303.276
C 505.394 304.228 506.189 306.826 506.263 308.084
C 506.526 312.532 506.516 317.135 506.191 321.578
C 506.111 322.678 505.165 326.094 505.936 326.844
C 495.88 330.697 485.995 334.933 477.051 341.03
C 454.155 356.636 435.362 380.323 426.467 406.726
C 422.148 419.547 419.6 432.653 419.436 446.207
C 419.375 451.227 419.388 456.501 419.966 461.491
C 420.114 462.773 420.556 463.983 420.747 465.245
C 420.783 465.483 420.958 466.08 420.721 466.208
C 418.88 463.837 417.481 460.73 416.056 458.079
C 413.048 452.481 410.066 446.854 406.989 441.293
C 405.86 439.252 404.827 437.155 403.897 435.016
C 403.641 434.428 403.442 433.184 402.721 433.153
C 402.417 438.75 400.836 444.494 399.883 450.038
C 397.973 461.16 396.159 472.335 394.393 483.486
C 393.133 491.45 391.509 499.359 390.338 507.336
C 389.514 512.944 389.206 519.303 387.402 524.683
C 386.625 523.893 386.328 522.239 385.957 521.192
C 384.875 518.136 383.925 515.065 383.089 511.928
C 379.885 499.916 377.442 487.458 376.087 475.099
C 369.975 419.362 382.875 361.801 414.628 315.19
C 423.344 302.395 433.041 290.437 444.187 279.666
C 446.974 276.973 449.769 274.248 452.747 271.765
C 453.902 270.803 455.013 269.478 456.521 269.152
C 462.62 277.046 469.869 284.357 476.815 291.507
C 480.489 295.289 484.103 299.755 488.621 302.552
C 493.514 305.581 501.219 306.033 506.341 303.276 Z"
opacity="1" fill="rgb(53,172,63)" fill-rule="evenodd" />
<path d="
M 378.456 205.605
C 379.616 197.001 382.117 189.042 386.954 181.745
C 390.383 176.57 394.99 172.267 400.043 168.721
C 404.726 165.434 410.222 163.107 415.763 161.719
C 441.916 155.17 469.077 171.298 476.224 197.227
C 478.288 204.713 478.422 212.307 477.119 219.926
C 475.595 228.841 470.776 236.099 465.426 243.1
C 467.788 244.026 469.776 247.628 471.567 249.41
C 472.91 249.142 474.113 248.536 475.521 248.692
C 479.669 249.152 482.507 253.705 485.173 256.471
C 490.61 262.11 495.93 267.866 501.366 273.51
C 504.237 276.491 508.331 279.663 508.822 284.074
C 509.664 291.642 502.436 298.409 494.855 296.026
C 490.923 294.79 487.973 290.598 485.33 287.666
C 481.572 283.498 477.566 279.551 473.723 275.461
C 471.027 272.59 468.42 269.632 465.768 266.721
C 464.87 265.735 463.338 264.787 462.934 263.464
C 462.554 262.22 462.26 260.359 462.457 259.059
C 462.582 258.242 463.232 257.623 463.199 256.777
C 461.481 254.597 459.706 252.194 457.536 250.445
C 455.355 251.589 453.43 253.364 451.195 254.532
C 444.579 257.99 437.105 260.075 429.624 260.23
C 400.276 260.837 376.038 234.89 378.456 205.605 Z
M 390.984 208.63
C 390.759 213.256 391.52 218.24 393.096 222.583
C 395.054 227.976 398.027 233.134 402.199 237.129
C 414.129 248.555 432.824 250.921 447.138 242.485
C 453.072 238.988 457.959 233.569 461.159 227.519
C 463.613 222.879 465.013 217.45 465.288 212.216
C 465.528 207.65 465.085 203.079 463.622 198.732
C 457.276 179.865 436.314 168.47 417.02 174.424
C 411.92 175.998 407.219 178.769 403.24 182.301
C 399.916 185.251 396.988 188.888 395.007 192.872
C 392.527 197.861 391.254 203.075 390.984 208.63 Z"
opacity="1" fill="rgb(12,120,196)" fill-rule="evenodd" />
<path d="
M 394.419 540.585
C 398.618 522.021 400.712 502.996 404.246 484.306
C 404.985 480.396 405.667 476.451 406.269 472.518
C 406.525 470.849 406.556 469.043 407.031 467.424
C 407.071 467.205 406.936 466.715 407.152 466.768
C 407.619 466.882 407.605 467.626 407.918 467.991
C 408.759 468.971 409.521 469.989 410.293 471.021
C 412.408 473.85 414.575 476.64 416.705 479.457
C 423.065 487.865 429.488 496.202 436.012 504.479
C 445.069 515.97 455.23 527.271 466.633 536.489
C 470.639 539.727 474.782 542.756 478.929 545.811
C 480.491 546.962 482.138 547.968 483.8 548.963
C 484.037 549.105 485.155 549.548 484.971 549.865
C 479.888 551.923 473.909 550.702 468.646 550.908
C 469.173 551.746 470.446 551.955 471.345 552.213
C 473.413 552.809 475.455 553.316 477.599 553.57
C 486.971 554.679 496.139 552.14 505.359 551.024
C 508.194 550.681 511.185 550.478 514.017 550.964
C 514.75 551.09 516.451 551.291 516.874 551.905
C 515.366 554.949 511.844 557.656 509.383 559.935
C 504.156 564.778 498.897 569.558 493.536 574.251
C 491.083 576.398 487.323 578.355 485.851 581.362
C 481.484 590.284 490.105 597.758 498.51 598.071
C 506.8 598.38 515.007 594.128 521.604 589.502
C 524.989 587.129 528.257 583.873 532.019 582.136
C 534.528 583.216 536.84 585.376 539.097 586.919
C 545.312 591.167 551.308 595.751 557.227 600.399
C 563.832 605.585 570.518 610.692 577.216 615.755
C 581.665 619.118 586.471 622.469 590.435 626.406
C 591.664 627.628 591.743 629.516 591.774 631.152
C 591.863 635.756 588.994 640.273 584.258 641.219
C 580.425 641.985 577.072 639.45 574.158 637.355
C 567.747 632.747 561.523 627.892 555.337 622.986
C 553.279 621.353 550.622 617.974 547.937 617.585
C 547.113 617.829 546.558 618.196 546.101 618.932
C 545.875 621.711 550.59 624.319 552.515 625.789
C 557.992 629.972 563.253 634.406 568.837 638.457
C 570.556 639.704 574.27 641.331 574.672 643.641
C 575.702 649.551 570.241 655.335 564.312 654.099
C 561.387 653.489 558.905 651.543 556.45 649.937
C 551.083 646.423 545.761 642.515 540.767 638.485
C 539.084 637.126 537.376 635.783 535.628 634.508
C 535.05 634.086 534.349 633.363 533.626 633.215
C 532.836 633.053 532.258 633.48 531.778 634.028
C 531.111 637.008 535.552 639.056 537.618 640.518
C 541.36 643.166 544.881 646.109 548.593 648.797
C 551.272 650.736 554.418 652.534 556.686 654.957
C 556.573 660.941 552.011 666.474 545.54 664.556
C 542.771 663.735 540.288 661.854 537.966 660.206
C 534.432 657.7 530.848 655.281 527.391 652.669
C 525.591 651.308 522.403 647.999 520.094 647.894
C 519.419 648.364 518.824 649.14 518.918 650.006
C 522.594 654.183 528 657.481 532.54 660.662
C 534.444 661.997 536.896 663.349 538.389 665.134
C 538.037 666.16 537.553 667.092 536.945 667.993
C 531.165 676.571 518.623 669.075 512.32 665.108
C 512.543 664.327 513.297 663.554 513.762 662.86
C 517.581 655.86 514.3 647.421 505.891 646.461
C 507.816 640.04 506.211 633.073 499.241 630.719
C 497.608 630.167 495.749 630.292 494.057 630.377
C 493.778 627.681 494.148 625.051 493.06 622.466
C 490.666 616.783 483.707 613.975 477.964 616.166
C 476.064 616.891 474.391 618.013 472.919 619.405
C 472.264 620.024 471.362 621.574 470.479 621.789
C 470.177 613.419 461.682 606.84 453.539 609.625
C 451.423 610.349 449.574 611.61 447.84 612.995
C 447.002 613.665 446.018 614.765 444.948 615.014
C 443.307 614.107 442.112 612.124 440.773 610.828
C 437.255 607.422 433.952 603.933 430.783 600.197
C 427.471 596.292 423.934 592.583 420.867 588.47
C 414.315 579.683 408.635 570.315 403.269 560.77
C 400.871 556.505 398.949 552.05 396.808 547.662
C 395.68 545.349 393.908 543.285 394.419 540.585 Z"
opacity="1" fill="rgb(52,174,65)" fill-rule="evenodd" />
<path d="
M 422.903 181.089
C 422.957 180.864 423.012 180.638 423.066 180.413
C 425.888 179.24 429.577 179.817 432.486 180.46
C 440.536 182.238 447.628 186.639 452.337 193.463
C 453.872 195.687 455.096 197.873 455.786 200.501
C 455.981 201.243 456.588 202.446 456.34 203.191
C 454.549 203.557 452.917 204.317 451.061 204.429
C 450.025 203.594 449.638 201.584 449.06 200.394
C 448.025 198.262 446.703 196.166 445.093 194.42
C 441.282 190.29 436.273 187.083 430.631 186.242
C 428.239 185.886 425.721 186.421 423.366 185.907
C 423.03 184.36 422.767 182.674 422.903 181.089 Z"
opacity="1" fill="rgb(15,122,194)" fill-rule="evenodd" />
<path d="
M 441.287 774.221
C 446.347 774.074 451.437 774.25 456.502 774.22
C 457.596 774.214 460.683 773.609 461.489 774.305
C 461.106 777.469 461.526 780.813 461.552 783.998
C 461.61 791.041 461.559 798.077 461.455 805.119
C 461.421 807.465 461.736 809.895 461.539 812.221
C 465.482 812.489 469.545 812.203 473.503 812.209
C 483.587 812.224 493.688 812.047 503.77 812.232
C 503.48 809.548 503.742 806.701 503.746 804
C 503.755 797.833 503.708 791.664 503.794 785.498
C 503.846 781.781 504.188 777.946 503.771 774.246
C 510.466 774.442 517.449 773.461 524.102 774.223
C 523.63 781.738 524.182 789.466 524.216 797.005
C 524.282 812.17 524.328 827.335 524.321 842.501
C 524.318 849.001 524.32 855.501 524.305 862.001
C 524.299 864.082 524.288 866.164 524.324 868.245
C 524.334 868.829 524.105 869.72 524.349 870.261
C 517.578 870.31 510.765 869.897 504.004 870.308
C 503.548 869.791 503.86 868.205 503.856 867.496
C 503.841 865.163 503.824 862.831 503.823 860.497
C 503.818 850.749 503.258 840.771 503.92 831.049
C 498.42 830.362 492.543 830.93 487.004 830.928
C 478.622 830.926 470.149 830.591 461.778 830.9
C 461.094 840.004 461.719 849.368 461.693 858.5
C 461.685 861.167 461.699 863.834 461.669 866.5
C 461.658 867.497 461.385 869.235 461.749 870.142
C 459.714 870.432 457.231 870.036 455.148 870.01
C 450.608 869.955 446.047 870.045 441.517 870.297
C 441.208 869.844 441.377 869.048 441.385 868.499
C 441.412 866.83 441.439 865.163 441.44 863.493
C 441.448 857.16 441.367 850.826 441.371 844.493
C 441.38 828.994 441.319 813.495 441.321 797.996
C 441.322 790.208 442.168 781.955 441.287 774.221 Z"
opacity="1" fill="rgb(56,173,66)" fill-rule="evenodd" />
<path d="
M 442.91 622.549
C 443.587 620.79 445.561 619.364 446.992 618.246
C 450.424 615.564 453.522 612.618 458.195 613.197
C 462.719 613.758 467.62 618.999 465.549 623.722
C 464.011 627.23 459.993 630.264 457.074 632.592
C 455.763 633.637 454.402 634.857 452.648 634.925
C 447.945 635.107 444.755 631.456 443.341 627.398
C 442.832 625.938 442.327 624.062 442.91 622.549 Z"
opacity="1" fill="rgb(54,170,66)" fill-rule="evenodd" />
<path d="
M 450.907 400.091
C 452.051 394.998 458.013 396.365 462.009 396.343
C 473.507 396.278 485.007 396.332 496.504 396.189
C 499.41 396.153 502.323 396.061 505.229 396.144
C 505.74 396.159 507.605 396.406 507.974 395.984
C 505.856 394.748 503.077 394.39 500.769 393.527
C 495.171 391.434 488.974 388.577 484.842 384.153
C 477.211 375.983 478.228 360.838 490.199 357.453
C 491.887 356.976 493.663 356.819 495.411 356.961
C 509.232 358.087 517.999 373.838 521.623 385.655
C 522.286 385.431 522.546 383.454 522.759 382.84
C 523.667 380.22 524.991 377.783 526.246 375.32
C 529.911 368.125 535.919 359.616 544.172 357.514
C 552.283 355.449 560.953 360.33 562.671 368.728
C 563.475 372.659 562.352 376.849 560.36 380.247
C 556.32 387.139 548.37 390.713 541.145 393.315
C 538.428 394.293 535.452 394.828 532.874 396.146
C 532.562 396.747 533.92 396.541 534.234 396.534
C 535.729 396.502 537.204 396.596 538.694 396.579
C 542.666 396.534 546.636 396.417 550.609 396.377
C 559.242 396.29 567.876 396.334 576.509 396.317
C 579.12 396.312 581.73 396.333 584.341 396.324
C 585.756 396.32 587.528 396.115 588.892 396.553
C 591.585 397.418 591.761 400.297 591.73 402.621
C 591.651 408.581 591.682 414.544 591.711 420.505
C 591.722 422.797 592.353 426.382 589.909 427.771
C 578.26 428.705 566.188 427.856 554.5 427.785
C 545.82 427.732 536.749 428.59 528.117 427.725
C 528.105 417.698 528.044 407.585 527.75 397.561
C 527.235 397.021 525.266 397.331 524.503 397.33
C 521.424 397.326 518.332 397.338 515.257 397.251
C 514.449 401.605 515.108 406.582 515.135 411.003
C 515.168 416.469 514.588 422.283 515.162 427.707
C 513.713 427.436 511.983 427.713 510.505 427.712
C 507.005 427.709 503.504 427.717 500.003 427.716
C 489.336 427.713 478.668 427.724 468.001 427.74
C 464.207 427.745 460.416 427.783 456.623 427.829
C 454.942 427.85 452.794 428.111 451.549 426.721
C 450.11 425.115 450.799 421.526 450.813 419.504
C 450.857 413.123 450.208 406.431 450.907 400.091 Z
M 488.921 370.576
C 488.181 374.952 491.081 378.782 494.509 381.14
C 500.159 385.024 506.39 387.443 513.012 389.082
C 514.324 389.407 515.549 390.074 516.873 390.312
C 514.673 387.801 513.366 384.517 511.647 381.668
C 508.661 376.718 505.236 371.776 500.549 368.28
C 496.432 365.21 490.873 364.935 488.921 370.576 Z
M 527.37 389.593
C 527.279 389.828 527.188 390.064 527.098 390.299
C 530.138 389.883 533.191 388.619 536.015 387.452
C 541.177 385.318 546.791 382.917 550.654 378.742
C 553.178 376.014 555.631 371.214 552.686 367.893
C 549.635 364.451 544.913 366.604 541.943 368.906
C 535.316 374.042 530.661 382.006 527.37 389.593 Z"
opacity="1" fill="rgb(239,102,28)" fill-rule="evenodd" />
<path d="
M 454.934 641.588
C 455.421 638.756 458.536 636.615 460.553 634.862
C 464.425 631.497 468.187 628.019 472.174 624.787
C 474.399 622.984 476.748 620.739 479.528 619.836
C 484.569 618.198 490.907 623.272 490.248 628.511
C 489.888 631.374 487.55 633.728 485.555 635.641
C 481.587 639.446 477.419 643.054 473.359 646.758
C 471.366 648.577 469.345 650.994 466.702 651.846
C 461.01 653.683 453.907 647.568 454.934 641.588 Z"
opacity="1" fill="rgb(55,175,69)" fill-rule="evenodd" />
<path d="
M 460.805 436.326
C 462.082 435.659 463.786 435.893 465.188 435.899
C 467.794 435.909 470.4 435.923 473.006 435.935
C 482.839 435.979 492.672 435.855 502.505 435.901
C 505.538 435.915 508.574 435.905 511.607 435.939
C 512.589 435.95 514.244 435.823 514.972 436.435
C 514.5 454.745 515.22 473.178 515.22 491.503
C 515.22 496.001 515.162 500.502 515.206 505
C 515.211 505.583 515.556 508.707 515.017 508.918
C 502.98 508.401 490.835 509.016 478.79 509.033
C 473.722 509.04 467.34 510.266 463.067 507.036
C 460.486 505.085 460.679 502.427 460.711 499.505
C 460.75 496.006 460.712 492.506 460.709 489.007
C 460.697 471.461 460.361 453.864 460.805 436.326 Z"
opacity="1" fill="rgb(239,100,27)" fill-rule="evenodd" />
<path d="
M 471.362 654.027
C 472.447 652.187 474.51 650.774 476.095 649.372
C 479.462 646.396 482.848 643.49 486.061 640.341
C 488.034 638.407 490.255 635.623 492.919 634.648
C 498.64 632.553 505.065 638.494 502.824 644.261
C 500.546 650.121 493.974 654.99 489.429 659.079
C 487.712 660.624 485.913 662.941 483.718 663.784
C 476.911 666.398 471.265 660.54 471.362 654.027 Z"
opacity="1" fill="rgb(53,175,68)" fill-rule="evenodd" />
<path d="
M 483.046 230.58
C 484.684 226.287 485.849 221.969 486.523 217.417
C 486.637 216.641 486.461 213.289 487.263 212.949
C 487.612 212.801 487.998 213.144 488.373 213.205
C 489.688 213.416 491.027 213.793 492.312 214.145
C 497.056 215.444 503.097 216.232 507.4 218.622
C 507.289 219.249 506.52 219.241 505.998 219.372
C 504.8 219.675 503.627 220.356 502.527 220.911
C 497.647 223.375 492.773 225.845 488.02 228.548
C 486.779 229.254 485.605 230.118 484.336 230.77
C 483.923 230.983 483.199 231.52 482.774 231.255
C 482.865 231.03 482.956 230.805 483.046 230.58 Z"
opacity="1" fill="rgb(19,28,61)" fill-rule="evenodd" />
<path d="
M 505.936 326.844
C 505.165 326.094 506.111 322.678 506.191 321.578
C 506.516 317.135 506.526 312.532 506.263 308.084
C 506.189 306.826 505.394 304.228 506.341 303.276
C 508.899 301.82 511.2 300.316 513.125 298.046
C 514.524 296.396 515.673 294.652 516.456 292.624
C 518.618 287.026 517.981 280.187 514.651 275.178
C 512.853 272.475 510.539 270.324 508.349 267.955
C 504.903 264.225 501.343 260.619 497.813 256.968
C 495.316 254.385 492.828 251.791 490.351 249.188
C 489.569 248.366 487.781 247.057 487.677 245.942
C 496.978 240.236 506.712 235.338 516.638 230.811
C 519.097 229.691 521.57 228.64 524.077 227.64
C 525.086 227.237 526.422 226.368 527.528 226.479
C 528.409 226.567 529.427 227.285 530.228 227.651
C 532.739 228.801 535.271 229.917 537.751 231.141
C 545.969 235.195 553.872 239.632 561.657 244.477
C 596.235 265.997 625.524 298.137 643.929 334.455
C 648.872 344.21 653.554 354.086 657.099 364.441
C 657.877 366.715 658.593 369.182 659.6 371.362
C 660.008 372.246 660.928 373.445 660.885 374.434
C 659.522 373.819 658.486 371.687 657.593 370.551
C 655.24 367.557 652.706 364.688 650.076 361.932
C 642.596 354.091 633.815 347.35 624.787 341.391
C 598.697 324.169 566.354 317.122 535.433 320.383
C 528.361 321.128 521.334 322.51 514.451 324.276
C 511.597 325.008 508.817 326.289 505.936 326.844 Z"
opacity="1" fill="rgb(20,32,67)" fill-rule="evenodd" />
<path d="
M 488.863 584.569
C 489.533 582.4 492.022 580.916 493.71 579.54
C 497.238 576.667 500.707 573.728 504.065 570.66
C 509.339 565.841 514.387 560.652 519.999 556.225
C 522.892 553.944 525.776 551.401 529.494 550.644
C 536.959 549.125 545.176 552.769 552.321 554.543
C 564.456 557.557 576.991 560.001 589.333 556.986
C 596.54 555.226 603.179 551.912 609.907 548.893
C 622.227 543.364 634.092 536.719 646.114 530.568
C 650.722 528.211 655.416 524.825 660.268 523.092
C 660.031 525.546 658.404 528.43 657.552 530.771
C 655.253 537.086 652.737 543.428 649.879 549.51
C 641.069 568.261 630.08 585.764 616.85 601.704
C 612.714 606.689 608.224 612.498 603.008 616.384
C 600.713 618.094 597.895 619.109 595.334 620.346
C 594.372 620.811 593.507 621.55 592.512 621.92
C 591.023 621.353 589.724 619.831 588.423 618.905
C 585.027 616.488 581.84 613.76 578.541 611.214
C 568.149 603.196 557.737 595.187 547.197 587.365
C 544.149 585.104 541.116 582.829 538.022 580.632
C 536.498 579.549 534.881 577.937 533.029 577.465
C 530.133 576.728 526.277 580.492 524.141 582.092
C 517.005 587.434 508.836 593.561 499.524 593.636
C 494.334 593.678 488.434 590.38 488.863 584.569 Z"
opacity="1" fill="rgb(52,174,64)" fill-rule="evenodd" />
<path d="
M 489.443 665.046
C 490.121 663.656 491.727 662.571 492.825 661.499
C 495.265 659.117 497.639 656.65 499.915 654.11
C 501.039 652.857 502.41 650.995 504.065 650.446
C 508.362 649.023 513 654.391 512.116 658.417
C 511.524 661.115 509.255 663.38 507.615 665.489
C 505.697 667.956 503.983 670.715 501.043 672.081
C 497.632 673.666 492.563 671.98 490.603 668.735
C 489.946 667.648 489.699 666.271 489.443 665.046 Z"
opacity="1" fill="rgb(55,177,72)" fill-rule="evenodd" />
<path d="
M 521.064 334.56
C 530.829 332.558 540.338 330.68 550.391 330.644
C 586.562 330.515 619.873 345.781 645.092 371.321
C 651.611 377.923 657.046 385.235 662.168 392.942
C 664.456 396.383 667.331 400.258 668.684 404.185
C 669.467 406.456 669.439 409.001 669.784 411.361
C 670.642 417.228 671.017 423.111 671.488 429.013
C 673.676 456.47 670.66 483.717 663.921 510.346
C 662.394 512.279 659.02 513.47 656.889 514.682
C 651.774 517.59 646.685 520.516 641.458 523.219
C 630.802 528.729 620.222 534.381 609.529 539.823
C 601.957 543.678 594.628 547.277 586.313 549.255
C 579.143 550.96 572.551 550.189 565.441 548.612
C 563.796 548.247 562.156 547.735 560.506 547.418
C 559.889 547.3 559.299 547.424 558.895 546.882
C 560.707 545.634 563.256 544.951 565.318 544.121
C 569.295 542.522 573.266 540.659 577.046 538.635
C 587.363 533.109 596.736 526.119 605.222 518.076
C 615.658 508.183 624.283 497.077 631.039 484.378
C 634.545 477.788 638.013 470.504 639.358 463.105
C 640.839 454.952 639.021 445.409 637.297 437.432
C 632.494 415.193 622.174 394.072 607.615 376.568
C 593.359 359.428 575.87 345.701 554.359 339.177
C 547.113 336.98 539.64 335.99 532.119 335.428
C 529.309 335.218 526.442 335.136 523.626 335.153
C 523.055 335.157 520.608 335.471 521.064 334.56 Z"
opacity="1" fill="rgb(19,32,67)" fill-rule="evenodd" />
<path d="
M 527.989 445.622
C 528.386 442.542 528.073 439.227 528.093 436.122
C 529.236 435.649 530.785 435.93 532.009 435.934
C 534.675 435.942 537.341 435.931 540.007 435.927
C 549.673 435.915 559.34 435.881 569.006 435.906
C 572.037 435.914 575.069 435.912 578.101 435.943
C 578.923 435.952 581.123 435.665 581.758 436.071
C 582.061 441.658 581.647 447.398 581.635 453.001
C 581.608 465.168 581.651 477.335 581.684 489.502
C 581.692 492.503 581.67 495.507 581.717 498.507
C 581.774 502.217 582.059 505.636 578.611 507.963
C 576.697 509.254 574.542 509.082 572.327 509.059
C 569.554 509.029 566.78 509.046 564.007 509.042
C 556.174 509.031 548.341 509.063 540.508 509.069
C 536.501 509.072 532.243 508.672 528.264 509.136
C 527.687 507.383 528.099 504.849 528.094 503.002
C 528.081 498.431 528.127 493.86 528.097 489.288
C 528.004 474.782 527.325 460.126 527.989 445.622 Z"
opacity="1" fill="rgb(240,101,28)" fill-rule="evenodd" />
<path d="
M 542.712 798.273
C 547.265 797.366 552.356 798.147 556.994 798.037
C 558.661 797.997 561.252 797.507 562.811 798.111
C 562.153 805.787 562.778 813.794 562.79 821.503
C 562.794 823.67 562.793 825.837 562.802 828.004
C 562.838 837.191 561.38 851.762 573.34 854.052
C 574.909 854.352 576.509 854.391 578.09 854.185
C 580.405 853.884 582.454 853.282 584.429 852.013
C 590.525 848.096 590.584 841.904 590.563 835.404
C 590.538 827.432 590.406 819.469 590.42 811.494
C 590.427 808.161 590.495 804.826 590.458 801.494
C 590.449 800.735 590.143 798.525 590.866 798.004
C 591.816 797.318 595.11 797.963 596.244 798.02
C 600.881 798.251 605.553 797.76 610.183 798.148
C 610.882 799.454 610.44 802.013 610.442 803.502
C 610.446 807.771 610.441 812.039 610.495 816.308
C 610.651 828.702 610.547 841.1 610.575 853.495
C 610.583 857.328 610.538 861.164 610.579 864.997
C 610.596 866.61 610.294 868.614 610.67 870.177
C 609.344 869.806 607.409 870.092 606.007 870.084
C 601.205 870.054 595.803 870.959 591.073 870.195
C 591.16 867.175 591.575 864.012 591.071 861.016
C 589.378 861.895 588.194 864.224 586.726 865.507
C 583.319 868.484 579.245 870.542 574.839 871.578
C 561.379 874.74 548.056 867.08 544.169 853.891
C 542.047 846.692 542.526 838.783 542.569 831.363
C 542.633 820.335 542.728 809.299 542.712 798.273 Z"
opacity="1" fill="rgb(54,173,66)" fill-rule="evenodd" />
<path d="
M 546.244 218.458
C 583.651 207.435 623.129 205.336 661.461 212.493
C 695.993 218.941 729.1 232.915 757.668 253.393
C 805.606 287.756 839.958 340.898 851.367 398.782
C 859.472 439.903 856.212 482.773 842.614 522.351
C 833.375 549.242 818.435 574.663 800.218 596.437
C 769.207 633.504 727.578 660.254 681.316 673.961
C 666.442 678.368 651.426 680.364 636.138 682.432
C 630.51 683.193 624.674 683.238 618.999 683.342
C 603.769 683.621 588.582 682.25 573.589 679.631
C 565.011 678.133 556.294 676.599 548.001 673.91
C 548.977 673.199 550.134 673.391 551.256 673.077
C 552.946 672.603 554.631 671.849 556.169 671.006
C 560.115 668.844 561.27 665.963 563.8 662.569
C 565.168 662.16 566.742 662.49 568.161 662.331
C 571.013 662.011 573.934 660.817 576.17 659.018
C 579.177 656.6 579.868 652.941 582.445 650.357
C 583.487 649.766 584.755 649.883 585.902 649.592
C 587.669 649.144 589.507 648.26 591.023 647.254
C 593.809 645.407 595.855 642.797 598.28 640.545
C 600.636 638.356 603.206 636.386 605.622 634.266
C 626.829 615.661 644.674 592.039 657.607 567.006
C 661.67 559.142 665.277 550.954 668.478 542.706
C 670.086 538.563 671.067 533.849 673.069 529.897
C 674.327 527.414 677.412 525.495 679.235 523.385
C 683.747 518.159 688.106 512.647 691.71 506.741
C 705.703 483.811 711.485 456.272 708.038 429.627
C 705.588 410.683 698.424 392.177 687.228 376.683
C 684.252 372.564 681.051 368.564 677.396 365.019
C 674.413 362.126 670.943 359.556 669.39 355.589
C 665.507 345.677 661.72 335.643 656.68 326.233
C 638.87 292.975 613.75 263.503 583.229 241.229
C 574.825 235.096 566.349 229.367 557.181 224.411
C 553.73 222.545 549.97 220.056 546.224 218.92
C 546.231 218.766 546.237 218.612 546.244 218.458 Z"
opacity="1" fill="rgb(54,173,63)" fill-rule="evenodd" />
<path d="
M 628.509 770.616
C 628.538 769.862 628.426 770.271 629.107 769.491
C 633.535 769.283 638.054 769.533 642.505 769.539
C 644.286 769.542 646.927 769.098 648.576 769.755
C 648.409 781.814 648.017 794.165 648.767 806.204
C 648.997 806.437 649.397 805.656 649.462 805.569
C 650.129 804.663 650.999 803.844 651.818 803.071
C 653.918 801.088 656.54 799.296 659.212 798.191
C 666.715 795.088 676.342 795.284 683.76 798.508
C 707.943 809.019 710.789 844.367 693.778 862.378
C 685.628 871.007 672.022 874.407 660.878 870.277
C 657.363 868.974 654.364 866.783 651.473 864.447
C 650.657 863.788 648.569 860.76 647.837 861.127
C 648.021 864.063 647.422 867.245 647.791 870.124
C 641.555 870.429 635.175 869.703 628.966 870.43
C 627.968 869.599 628.601 865.363 628.608 863.997
C 628.639 858.007 628.738 851.978 628.542 845.991
C 627.938 827.607 628.439 809.11 628.406 790.713
C 628.394 784.06 629.082 777.251 628.509 770.616 Z
M 647.93 830.608
C 647.104 837.925 649.015 846.502 655.056 851.262
C 661.958 856.702 673.021 855.766 678.964 849.242
C 681.845 846.079 683.468 841.429 683.937 837.237
C 684.709 830.319 682.707 821.461 676.956 816.903
C 670.374 811.686 659.962 811.878 653.724 817.562
C 650.195 820.778 648.451 825.988 647.93 830.608 Z"
opacity="1" fill="rgb(55,172,66)" fill-rule="evenodd" />
<path d="
M 730.97 858.59
C 730.958 858.445 730.946 858.299 730.934 858.154
C 735.085 854.061 739.01 849.723 743.128 845.598
C 744.983 846.538 746.604 848.802 748.285 850.104
C 752.262 853.184 757.468 854.689 762.425 853.509
C 763.696 853.206 764.869 852.725 765.998 852.072
C 772.642 848.227 771.944 840.128 771.912 833.494
C 771.816 813.846 772.119 794.179 771.927 774.538
C 776.615 774.336 781.318 774.434 786.009 774.443
C 787.559 774.446 790.494 773.85 791.872 774.48
C 791.881 790.815 791.787 807.158 791.779 823.497
C 791.774 833.18 792.758 843.689 789.484 852.985
C 783.113 871.075 761.102 876.442 744.728 869.125
C 739.094 866.608 735.394 862.657 730.97 858.59 Z"
opacity="1" fill="rgb(244,107,30)" fill-rule="evenodd" />
<path d="
M 810.084 798.172
C 816.458 797.914 823.11 797.822 829.481 798.185
C 829.498 800.998 829.534 803.884 829.628 806.711
C 830.276 807.089 831.155 805.43 831.577 804.914
C 833.314 802.789 835.408 801.039 837.814 799.71
C 843.685 796.467 850.882 795.493 857.46 796.777
C 859.857 797.245 862.204 798.023 864.374 799.147
C 877.926 806.168 877.168 822.634 877.154 835.701
C 877.151 838.634 877.166 841.566 877.163 844.499
C 877.159 848.833 877.142 853.166 877.135 857.5
C 877.13 861.569 876.571 866.143 877.216 870.158
C 874.629 869.772 871.632 870.111 869.01 870.133
C 865.058 870.164 861.037 869.967 857.096 870.232
C 856.423 866.37 856.932 861.914 856.914 857.993
C 856.877 850.163 856.839 842.333 856.84 834.503
C 856.841 828.786 857.447 822.286 853.719 817.479
C 851.778 814.976 848.844 814.075 845.8 813.851
C 839.621 813.397 834.044 815.649 831.523 821.623
C 829.428 826.59 830.071 832.861 830.069 838.142
C 830.067 845.095 830.161 852.047 830.134 859.001
C 830.12 862.56 829.549 866.789 830.266 870.277
C 823.606 870.04 816.892 870.209 810.231 870.249
C 810.274 855.338 810.069 840.408 810.08 825.49
C 810.086 816.427 810.553 807.217 810.084 798.172 Z"
opacity="1" fill="rgb(243,104,29)" fill-rule="evenodd" />
<path d="
M 893.491 780.12
C 893.802 778.183 893.496 776.176 893.656 774.225
C 898.43 774.347 903.227 774.221 908.006 774.227
C 909.568 774.229 912.296 773.659 913.677 774.288
C 913.418 779.314 913.707 784.455 913.712 789.5
C 913.723 799.935 913.732 810.371 913.691 820.805
C 913.656 829.612 913.376 839.371 919.273 846.615
C 926.248 855.183 941.752 855.995 950.17 849.116
C 952.461 847.244 954.06 844.68 955.261 842.008
C 958.869 833.98 957.811 824.568 957.785 816.007
C 957.758 807.008 957.715 798.008 957.739 789.008
C 957.752 784.152 958.083 779.189 957.741 774.346
C 964.401 774.434 971.179 774.552 977.835 774.252
C 978.412 776.348 977.877 779.315 977.877 781.498
C 977.876 786.666 977.914 791.833 977.91 797
C 977.903 805.001 977.912 813.001 977.909 821.001
C 977.905 833.242 977.371 845.826 969.963 856.205
C 957.318 873.924 930.7 876.967 912.481 866.39
C 907.993 863.784 903.714 860.385 900.879 855.976
C 893.656 844.745 893.836 832.352 893.569 819.518
C 893.297 806.499 892.624 793.119 893.491 780.12 Z"
opacity="1" fill="rgb(244,105,27)" fill-rule="evenodd" />

</svg>